<svg id="Layer_35" enable-background="new 0 0 64 64" height="512" viewBox="0 0 64 64" width="512" xmlns="http://www.w3.org/2000/svg"><path d="m2 2v60h34v-12h12v-48z" fill="#e6e9ed"/><path d="m48 50-12 12v-12z" fill="#ffeaa7"/><path d="m62 17.24c0 1.13-.45 2.21-1.24 3l-2.38 2.38-.38.38-2 2-6-6 4.76-4.76c.79-.79 1.87-1.24 3-1.24 1.17 0 2.23.48 3 1.24.76.77 1.24 1.83 1.24 3z" fill="#aab2bd"/><path d="m56 25-8 8-9.59 9.59c-.14.14-.28.27-.43.39l-5.96-5.96c.12-.15.25-.29.39-.43l2.59-2.59 1-1 8-8 4-4 2-2z" fill="#ff826e"/><path d="m44 6v6h-8-6v-6z" fill="#b4dd7f"/><path d="m32.02 37.02 5.96 5.96c-.84.69-1.87 1.15-2.96 1.3l-5.02.72.72-5.02c.15-1.09.61-2.12 1.3-2.96z" fill="#aab2bd"/><path d="m30 6v6h-8-8v-6z" fill="#fcd770"/><path d="m16 38c5.52 0 10 4.48 10 10s-4.48 10-10 10-10-4.48-10-10 4.48-10 10-10z" fill="#fcd770"/><path d="m6 12v22h29l9-9v-13z" fill="#ffeaa7"/><path d="m6 6h8v6h-8z" fill="#ff826e"/><path d="m61.142 21.272.323-.323c.99-.99 1.536-2.307 1.536-3.707-.001-2.89-2.353-5.242-5.244-5.242-1.4 0-2.717.545-3.707 1.536l-5.05 5.05v-17.586h-48v62h35.414l12.586-12.586v-17l9.707-9.707.379-.379c.212-.211.493-.328.793-.328.618 0 1.121.503 1.121 1.121 0 .3-.117.581-.328.793l-8.379 8.379 1.414 1.414 8.379-8.379c.589-.589.914-1.373.914-2.207 0-1.271-.766-2.362-1.858-2.849zm-24.142 9.314v-17.586h6v11.586zm6-19.586h-12v-4h12zm-14 0h-14v-4h14zm-16 0h-6v-4h6zm-6 2h6v20h-6zm8 0h6v20h-6zm8 0h6v20h-6zm8 0h4v19.586l-.414.414h-3.586zm.707 27.122c.076-.53.239-1.046.477-1.523l4.218 4.218c-.478.238-.993.401-1.523.477l-3.7.528zm6.293 1.464-4.586-4.586 16.586-16.586 4.586 4.586zm-1 18v-8.586h8.586zm10-10.586h-12v12h-32v-58h44v17.586l-2 2v-17.586h-40v30h27.586l-.879.879c-1.064 1.063-1.767 2.47-1.979 3.959l-.906 6.34 6.34-.906c1.49-.212 2.896-.916 3.959-1.979l7.879-7.879zm9-25.414-4.586-4.586 4.05-4.05c.613-.612 1.427-.95 2.293-.95 1.788 0 3.243 1.455 3.243 3.243 0 .866-.337 1.68-.95 2.293l-2.378 2.378-.379.379z"/><path d="m16 45c.551 0 1 .449 1 1h2c0-1.302-.839-2.402-2-2.816v-2.184h-2v2h-2v3c0 1.654 1.346 3 3 3 .551 0 1 .449 1 1v1h-1c-.551 0-1-.449-1-1h-2c0 1.302.839 2.402 2 2.816v2.184h2v-2h2v-3c0-1.654-1.346-3-3-3-.551 0-1-.449-1-1v-1z"/><circle cx="10" cy="48" r="1"/><circle cx="22" cy="48" r="1"/><path d="m16 37c-6.065 0-11 4.935-11 11s4.935 11 11 11 11-4.935 11-11-4.935-11-11-11zm0 20c-4.962 0-9-4.038-9-9s4.038-9 9-9 9 4.038 9 9-4.038 9-9 9z"/><path d="m31 57h2v2h-2z"/><path d="m31 53h2v2h-2z"/><path d="m31 49h2v2h-2z"/></svg>