<svg id="Fill_out_line" height="512" viewBox="0 0 512 512" width="512" xmlns="http://www.w3.org/2000/svg" data-name="Fill out line"><path d="m256 24 232 64v64h-464v-64z" fill="#3ea7ff"/><path d="m488 472v16h-464v-16a15.99552 15.99552 0 0 1 16-16h432a15.73428 15.73428 0 0 1 6.58008 1.42 15.973 15.973 0 0 1 9.41992 14.58z" fill="#3ea7ff"/><path d="m48 152h416v32h-416z" fill="#3ea7ff"/><circle cx="256" cy="88" fill="#2b7cd4" r="32"/><path d="m48 424h64a0 0 0 0 1 0 0v16a16 16 0 0 1 -16 16h-32a16 16 0 0 1 -16-16v-16a0 0 0 0 1 0 0z" fill="#3ea7ff" transform="matrix(-1 0 0 -1 160 880)"/><path d="m72 424h64a0 0 0 0 1 0 0v16a16 16 0 0 1 -16 16h-32a16 16 0 0 1 -16-16v-16a0 0 0 0 1 0 0z" fill="#2b7cd4" transform="matrix(-1 0 0 -1 208 880)"/><path d="m80 424h64a0 0 0 0 1 0 0v16a16 16 0 0 1 -16 16h-32a16 16 0 0 1 -16-16v-16a0 0 0 0 1 0 0z" fill="#3ea7ff" transform="matrix(-1 0 0 -1 224 880)"/><path d="m104 424h64a0 0 0 0 1 0 0v16a16 16 0 0 1 -16 16h-32a16 16 0 0 1 -16-16v-16a0 0 0 0 1 0 0z" fill="#2b7cd4" transform="matrix(-1 0 0 -1 272 880)"/><path d="m112 424h64a0 0 0 0 1 0 0v16a16 16 0 0 1 -16 16h-32a16 16 0 0 1 -16-16v-16a0 0 0 0 1 0 0z" fill="#3ea7ff" transform="matrix(-1 0 0 -1 288 880)"/><path d="m416 424h32a16 16 0 0 1 16 16v16a0 0 0 0 1 0 0h-64a0 0 0 0 1 0 0v-16a16 16 0 0 1 16-16z" fill="#3ea7ff"/><path d="m392 424h32a16 16 0 0 1 16 16v16a0 0 0 0 1 0 0h-64a0 0 0 0 1 0 0v-16a16 16 0 0 1 16-16z" fill="#2b7cd4"/><path d="m384 424h32a16 16 0 0 1 16 16v16a0 0 0 0 1 0 0h-64a0 0 0 0 1 0 0v-16a16 16 0 0 1 16-16z" fill="#3ea7ff"/><path d="m360 424h32a16 16 0 0 1 16 16v16a0 0 0 0 1 0 0h-64a0 0 0 0 1 0 0v-16a16 16 0 0 1 16-16z" fill="#2b7cd4"/><path d="m352 424h32a16 16 0 0 1 16 16v16a0 0 0 0 1 0 0h-64a0 0 0 0 1 0 0v-16a16 16 0 0 1 16-16z" fill="#3ea7ff"/><path d="m64 184h32a16 16 0 0 1 16 16v16a0 0 0 0 1 0 0h-64a0 0 0 0 1 0 0v-16a16 16 0 0 1 16-16z" fill="#719600" transform="matrix(-1 0 0 -1 160 400)"/><path d="m128 184h32a16 16 0 0 1 16 16v16a0 0 0 0 1 0 0h-64a0 0 0 0 1 0 0v-16a16 16 0 0 1 16-16z" fill="#3ea7ff" transform="matrix(-1 0 0 -1 288 400)"/><path d="m48 184h64a0 0 0 0 1 0 0v16a16 16 0 0 1 -16 16h-32a16 16 0 0 1 -16-16v-16a0 0 0 0 1 0 0z" fill="#3ea7ff"/><path d="m72 184h64a0 0 0 0 1 0 0v16a16 16 0 0 1 -16 16h-32a16 16 0 0 1 -16-16v-16a0 0 0 0 1 0 0z" fill="#2b7cd4"/><path d="m80 184h64a0 0 0 0 1 0 0v16a16 16 0 0 1 -16 16h-32a16 16 0 0 1 -16-16v-16a0 0 0 0 1 0 0z" fill="#3ea7ff"/><path d="m104 184h64a0 0 0 0 1 0 0v16a16 16 0 0 1 -16 16h-32a16 16 0 0 1 -16-16v-16a0 0 0 0 1 0 0z" fill="#2b7cd4"/><path d="m112 184h64a0 0 0 0 1 0 0v16a16 16 0 0 1 -16 16h-32a16 16 0 0 1 -16-16v-16a0 0 0 0 1 0 0z" fill="#3ea7ff"/><path d="m400 184h64a0 0 0 0 1 0 0v16a16 16 0 0 1 -16 16h-32a16 16 0 0 1 -16-16v-16a0 0 0 0 1 0 0z" fill="#3ea7ff"/><path d="m376 184h64a0 0 0 0 1 0 0v16a16 16 0 0 1 -16 16h-32a16 16 0 0 1 -16-16v-16a0 0 0 0 1 0 0z" fill="#2b7cd4"/><path d="m368 184h64a0 0 0 0 1 0 0v16a16 16 0 0 1 -16 16h-32a16 16 0 0 1 -16-16v-16a0 0 0 0 1 0 0z" fill="#3ea7ff"/><path d="m344 184h64a0 0 0 0 1 0 0v16a16 16 0 0 1 -16 16h-32a16 16 0 0 1 -16-16v-16a0 0 0 0 1 0 0z" fill="#2b7cd4"/><path d="m336 184h64a0 0 0 0 1 0 0v16a16 16 0 0 1 -16 16h-32a16 16 0 0 1 -16-16v-16a0 0 0 0 1 0 0z" fill="#3ea7ff"/><path d="m64 216h32v208h-32z" fill="#3ea7ff"/><path d="m96 216h32v208h-32z" fill="#3ea7ff"/><path d="m128 216h32v208h-32z" fill="#3ea7ff"/><path d="m160 224v-8h-96v208h96v-8h-24v-192zm-64 192h-24v-192h24zm32 0h-24v-192h24z" fill="#2b7cd4"/><path d="m352 216h32v208h-32z" fill="#3ea7ff"/><path d="m384 216h32v208h-32z" fill="#3ea7ff"/><path d="m416 216h32v208h-32z" fill="#3ea7ff"/><g fill="#2b7cd4"><path d="m176 184h-128v8h128"/><path d="m464 184h-128v8h128"/><path d="m48 152h416v8h-416z"/><path d="m352 416v8h96v-208h-96v8h24v192zm64-192h24v192h-24zm-32 0h24v192h-24z"/><path d="m48 448h128v8h-128z"/><path d="m336 448h128v8h-128z"/><path d="m488 472v16h-464v-8h456v-16a15.76868 15.76868 0 0 0 -1.41992-6.58 15.973 15.973 0 0 1 9.41992 14.58z"/></g><path d="m368 456h112v40h-112z" fill="#808080"/><path d="m304 152h128v240h-128z" fill="#a0cc00"/><path d="m384 152a48 48 0 0 0 48 48v-48z" fill="#85b200"/><path d="m304 200a48 48 0 0 0 48-48h-48z" fill="#85b200"/><path d="m352 392a48 48 0 0 0 -48-48v48z" fill="#85b200"/><path d="m432 344a48 48 0 0 0 -48 48h48z" fill="#85b200"/><circle cx="368" cy="272" fill="#85b200" r="32"/><path d="m400 376v-24a16 16 0 0 0 -16-16 16 16 0 0 0 -16 16v24.89167a64 64 0 0 0 6.75666 28.62167l25.24334 50.48666h64l21.69747-108.48733a36.93029 36.93029 0 0 0 -2.46581-22.24143l-17.48435-39.33978a36.93025 36.93025 0 0 0 -33.74731-21.93146v128h-16a16 16 0 0 1 -16-16z" fill="#ffc7cc"/><path d="m490.12793 80.28809-232-64a8.00948 8.00948 0 0 0 -4.25586 0l-232 64a8 8 0 0 0 -5.87207 7.71191v64a8.00008 8.00008 0 0 0 8 8h16v40a24.03813 24.03813 0 0 0 16 22.62384v194.75238a24.038 24.038 0 0 0 -16 22.62378v8a24.02718 24.02718 0 0 0 -24 24v16a8.00008 8.00008 0 0 0 8 8h320v-16h-312v-8a8.00917 8.00917 0 0 1 8-8h304v-16h-160v-8a24.0384 24.0384 0 0 0 -16-22.62378v-194.75244a24.03853 24.03853 0 0 0 16-22.62378v-8h96v-16h-224v-16h224v-16h-248v-49.9082l224-61.793 224 61.793v49.9082h-16a8.00008 8.00008 0 0 0 -8 8v48a8.03762 8.03762 0 0 1 -4.00586 6.93457l8.01172 13.84961a24.08453 24.08453 0 0 0 11.99414-20.78418v-40h16a8.00008 8.00008 0 0 0 8-8v-64a8 8 0 0 0 -5.87207-7.71191zm-434.12793 359.71191a8.00917 8.00917 0 0 1 8-8h9.37622a23.88238 23.88238 0 0 0 -1.37622 8v8h-16zm32-240v-8h16v8a23.88212 23.88212 0 0 0 1.37622 8h-9.37622a8.00917 8.00917 0 0 1 -8-8zm16 248h-16v-8a8.00917 8.00917 0 0 1 8-8h9.37622a23.88238 23.88238 0 0 0 -1.37622 8zm16-224v192h-16v-192zm16 0h16v192h-16zm-48 0v192h-16v-192zm32 224v-8a8.00917 8.00917 0 0 1 8-8h32a8.00917 8.00917 0 0 1 8 8v8zm48-248a8.00917 8.00917 0 0 1 -8 8h-32a8.00917 8.00917 0 0 1 -8-8v-8h48zm-96-8v8a23.88212 23.88212 0 0 0 1.37622 8h-9.37622a8.00917 8.00917 0 0 1 -8-8v-8z"/><path d="m256 48a40 40 0 1 0 40 40 40.04552 40.04552 0 0 0 -40-40zm0 64a24 24 0 1 1 24-24 24.0275 24.0275 0 0 1 -24 24z"/><path d="m312 80h32v16h-32z"/><path d="m168 80h32v16h-32z"/><path d="m48 112h152v16h-152z"/><path d="m312 112h152v16h-152z"/><path d="m408 272a40 40 0 1 0 -40 40 40.04552 40.04552 0 0 0 40-40zm-64 0a24 24 0 1 1 24 24 24.0275 24.0275 0 0 1 -24-24z"/><path d="m367.60156 409.09082 19.45435 38.90918h-19.05591a8.00008 8.00008 0 0 0 -8 8v40h16v-32h96v32h16v-40a8.00008 8.00008 0 0 0 -8-8h-6.24146l19.78346-98.91846a44.6952 44.6952 0 0 0 -3-27.05957l-17.48437-39.33886a44.9759 44.9759 0 0 0 -33.05763-25.96211v-104.721a8.00008 8.00008 0 0 0 -8-8h-128a8.00008 8.00008 0 0 0 -8 8v240a8.00008 8.00008 0 0 0 8 8h59.82324a71.62493 71.62493 0 0 0 3.77832 9.09082zm72.39844-17.09082v-118.87061a28.95422 28.95422 0 0 1 18.43652 16.05127l17.48438 39.33934a28.77852 28.77852 0 0 1 1.93164 17.42383l-20.41113 102.05617h-52.49707l-23.03223-46.06445a56.28216 56.28216 0 0 1 -5.91211-25.04395v-24.8916a8 8 0 0 1 16 0v24a24.0275 24.0275 0 0 0 24 24h16a8.00008 8.00008 0 0 0 8-8zm-32-16v-15.99719a39.88516 39.88516 0 0 1 16-7.18762v31.18481h-8a8.00917 8.00917 0 0 1 -8-8zm16-216v31.19507a40.12035 40.12035 0 0 1 -31.19507-31.19507zm-112 0h31.19507a40.12035 40.12035 0 0 1 -31.19507 31.19507zm0 224v-31.19507a40.12034 40.12034 0 0 1 31.19507 31.19507zm47.41943 0a56.11348 56.11348 0 0 0 -47.41943-47.41943v-129.16114a56.11355 56.11355 0 0 0 47.41943-47.41943h17.16114a56.11355 56.11355 0 0 0 47.41943 47.41943v129.15869a55.85327 55.85327 0 0 0 -18.00439 5.83423 23.99629 23.99629 0 0 0 -45.99561 9.58765v24.8916c0 2.37293.127 4.74585.36377 7.1084z"/></svg>