<?xml version="1.0" encoding="iso-8859-1"?>
<!-- Generator: Adobe Illustrator 19.0.0, SVG Export Plug-In . SVG Version: 6.00 Build 0)  -->
<svg version="1.1" id="Capa_1" xmlns="http://www.w3.org/2000/svg" xmlns:xlink="http://www.w3.org/1999/xlink" x="0px" y="0px"
	 viewBox="0 0 496 496" style="enable-background:new 0 0 496 496;" xml:space="preserve">
<circle style="fill:#FFCB57;" cx="248" cy="240" r="104"/>
<g>
	<polygon style="fill:#E56565;" points="400,328 400,272 376,272 376,256 416,256 416,280 446.4,240 416,200 416,224 376,224 
		376,208 400,208 400,152 465.6,240 	"/>
	<polygon style="fill:#E56565;" points="96,328 30.4,240 96,152 96,208 120,208 120,224 80,224 80,200 49.6,240 80,280 80,256 
		120,256 120,272 96,272 	"/>
</g>
<g>
	<path style="fill:#3F3A34;" d="M360,240c0-61.6-50.4-112-112-112s-112,50.4-112,112s50.4,112,112,112S360,301.6,360,240z M248,336
		c-52.8,0-96-43.2-96-96s43.2-96,96-96s96,43.2,96,96S300.8,336,248,336z"/>
	<path style="fill:#3F3A34;" d="M256,176.8V160h-16v16.8c-17.6,2.4-32,16.8-32,35.2c0,20,16,36,36,36h8c11.2,0,20,8.8,20,20
		s-8.8,20-20,20h-8c-11.2,0-20-8.8-20-20v-4h-16v4c0,18.4,14.4,33.6,32,35.2V320h16v-16.8c17.6-2.4,32-16.8,32-35.2
		c0-20-16-36-36-36h-8c-11.2,0-20-8.8-20-20s8.8-20,20-20h8c11.2,0,20,8.8,20,20v4h16v-4C288,193.6,273.6,178.4,256,176.8z"/>
	<path style="fill:#3F3A34;" d="M16,64h208v48h16V40c0-22.4-17.6-40-40-40H40C17.6,0,0,17.6,0,40v312h16V64z M40,16h160
		c13.6,0,24,10.4,24,24v8H16v-8C16,26.4,26.4,16,40,16z"/>
	<rect x="80" y="400" style="fill:#3F3A34;" width="80" height="16"/>
	<path style="fill:#3F3A34;" d="M0,408c0,22.4,17.6,40,40,40h160c22.4,0,40-17.6,40-40v-40H0V408z M16,384h208v24
		c0,13.6-10.4,24-24,24H40c-13.6,0-24-10.4-24-24V384z"/>
	<path style="fill:#3F3A34;" d="M456,48H296c-22.4,0-40,17.6-40,40v24h8h8h208v288h16V88C496,65.6,478.4,48,456,48z M272,96v-8
		c0-13.6,10.4-24,24-24h160c13.6,0,24,10.4,24,24v8H272z"/>
	<rect x="336" y="448" style="fill:#3F3A34;" width="80" height="16"/>
	<path style="fill:#3F3A34;" d="M272,368h-16v88c0,22.4,17.6,40,40,40h160c22.4,0,40-17.6,40-40v-40H272V368z M480,432v24
		c0,13.6-10.4,24-24,24H296c-13.6,0-24-10.4-24-24v-24H480z"/>
	<rect x="384" y="368" style="fill:#3F3A34;" width="16" height="16"/>
	<rect x="352" y="368" style="fill:#3F3A34;" width="16" height="16"/>
	<rect x="320" y="368" style="fill:#3F3A34;" width="16" height="16"/>
	<rect x="160" y="96" style="fill:#3F3A34;" width="16" height="16"/>
	<rect x="128" y="96" style="fill:#3F3A34;" width="16" height="16"/>
	<rect x="96" y="96" style="fill:#3F3A34;" width="16" height="16"/>
</g>
<g>
</g>
<g>
</g>
<g>
</g>
<g>
</g>
<g>
</g>
<g>
</g>
<g>
</g>
<g>
</g>
<g>
</g>
<g>
</g>
<g>
</g>
<g>
</g>
<g>
</g>
<g>
</g>
<g>
</g>
</svg>
